<svg xmlns="http://www.w3.org/2000/svg" xmlns:xlink="http://www.w3.org/1999/xlink" width="235.505" height="227.348" viewBox="0 0 235.505 227.348">
  <defs>
    <linearGradient id="linear-gradient" x1="0.5" x2="0.5" y2="1" gradientUnits="objectBoundingBox">
      <stop offset="0" stop-color="#fff"/>
      <stop offset="1" stop-color="#e8edff"/>
    </linearGradient>
    <linearGradient id="linear-gradient-2" x1="0.5" y1="1.347" x2="0.5" y2="0.141" gradientUnits="objectBoundingBox">
      <stop offset="0" stop-color="#fff" stop-opacity="0.4"/>
      <stop offset="1" stop-color="#f1f1f2" stop-opacity="0"/>
    </linearGradient>
    <linearGradient id="linear-gradient-3" x1="0.5" x2="0.5" y2="1" gradientUnits="objectBoundingBox">
      <stop offset="0" stop-color="#ec8a7b"/>
      <stop offset="1" stop-color="#ec337b"/>
    </linearGradient>
  </defs>
  <g id="Group_3" data-name="Group 3" transform="translate(-41.764 -372.227)">
    <path id="Path_17" data-name="Path 17" d="M1307.313,368.855s.393,13.4,14.2,14.536,6.925-3.331,6.168-3.385-2.274-3.74-3.283-3.79S1307.313,368.855,1307.313,368.855Z" transform="translate(-1244.335 216)" fill="#262261"/>
    <g id="Group_2" data-name="Group 2">
      <path id="Path_15" data-name="Path 15" d="M1129.24,177.734a5.178,5.178,0,1,0,5.178-5.177A5.177,5.177,0,0,0,1129.24,177.734Z" transform="translate(-875.802 216)" fill="#262261"/>
      <path id="Path_101" data-name="Path 101" d="M7.887,0A7.887,7.887,0,1,1,0,7.887,7.887,7.887,0,0,1,7.887,0Z" transform="translate(261.495 400.484)" fill="#262261"/>
      <path id="Path_16" data-name="Path 16" d="M1197.435,335.011a14.037,14.037,0,1,0,14.038-14.038A14.037,14.037,0,0,0,1197.435,335.011Z" transform="translate(-1029.911 216)" fill="#262261"/>
      <path id="Path_18" data-name="Path 18" d="M1183.641,165.115H1286.8c31.089,0,56.386,29.488,56.386,65.732v42.145c0,36.243-25.3,65.73-56.386,65.73h-37.792c-11.515,18.1-37.089,44.828-87.653,44.828-2.222,0-4.5-.055-6.772-.159a6.466,6.466,0,0,1-1.6-12.641,49.585,49.585,0,0,0,29.821-32.036c-30.709-.517-55.552-29.8-55.552-65.722V230.847C1127.257,194.6,1152.55,165.115,1183.641,165.115Z" transform="translate(-1077.412 216)" fill="#262261"/>
      <path id="Path_19" data-name="Path 19" d="M1191.721,156.227h103.162c31.09,0,56.386,29.49,56.386,65.733v42.145c0,36.242-25.3,65.73-56.386,65.73h-37.794c-11.513,18.1-37.087,44.828-87.651,44.828-2.222,0-4.5-.056-6.771-.161a6.466,6.466,0,0,1-1.6-12.64,49.583,49.583,0,0,0,29.821-32.035c-30.709-.517-55.552-29.8-55.552-65.722V221.96C1135.337,185.717,1160.63,156.227,1191.721,156.227Z" transform="translate(-1093.573 216)" fill="#262261"/>
      <path id="Path_20" data-name="Path 20" d="M1191.723,162.694h103.162c27.57,0,49.919,26.536,49.919,59.266v42.145c0,32.729-22.349,59.263-49.919,59.263h-41.426c-9.9,17.017-35.348,47.221-90.492,44.675,0,0,30.22-9.276,36.06-44.675h-7.3c-27.569,0-49.919-26.534-49.919-59.263V221.96C1141.8,189.23,1164.154,162.694,1191.723,162.694Z" transform="translate(-1093.574 216)" fill="url(#linear-gradient)"/>
      <path id="Path_23" data-name="Path 23" d="M1183.595,349.046a6.92,6.92,0,1,0,6.921-6.92A6.923,6.923,0,0,0,1183.595,349.046Z" transform="translate(-987.997 216)" fill="#262261"/>
      <path id="Path_24" data-name="Path 24" d="M1198.744,355.969a4.648,4.648,0,1,0,4.649-4.651A4.647,4.647,0,0,0,1198.744,355.969Z" transform="translate(-1013.751 216)" fill="#262261"/>
      <path id="Path_22" data-name="Path 22" d="M1192.73,169.8h99.579c26.611,0,48.184,25.615,48.184,57.207v12.952c-25.884,12.072-63.653,19.683-105.728,19.683-34.3,0-65.746-5.061-90.218-13.469V227C1144.547,195.412,1166.12,169.8,1192.73,169.8Z" transform="translate(-1092.007 216)" fill="url(#linear-gradient-2)"/>
    </g>
    <path class="testing" id="Path_21" data-name="Path 21" d="M1297.385,221.76l-15.14-19.643-37.438,29.075L1209.2,199.911,1192.9,218.6l32.038,28.023-33.675,26.152,14.056,20.179,38.525-29.793,36.659,32.066,15.248-19.294L1263.712,247.8Z" transform="translate(-1095 210)" stroke="#262261" stroke-width="4" fill="url(#linear-gradient-3)"/>
  </g>
</svg>
