<svg xmlns="http://www.w3.org/2000/svg" xmlns:xlink="http://www.w3.org/1999/xlink" width="374.813" height="400.407" viewBox="0 0 374.813 400.407">
  <defs>
    <filter id="Path_100" x="0" y="0" width="374.813" height="394.535" filterUnits="userSpaceOnUse">
      <feOffset dy="3" input="SourceAlpha"/>
      <feGaussianBlur stdDeviation="3" result="blur"/>
      <feFlood flood-opacity="0.161"/>
      <feComposite operator="in" in2="blur"/>
      <feComposite in="SourceGraphic"/>
    </filter>
    <linearGradient id="linear-gradient" y1="0.5" x2="1" y2="0.5" gradientUnits="objectBoundingBox">
      <stop offset="0" stop-color="#ec8a7b"/>
      <stop offset="0.994" stop-color="#ec337b"/>
    </linearGradient>
    <linearGradient id="linear-gradient-2" x1="0.767" y1="-0.109" x2="0.321" y2="0.998" xlink:href="#linear-gradient"/>
    <linearGradient id="linear-gradient-3" x1="1.145" y1="0.491" x2="-0.359" y2="0.511" xlink:href="#linear-gradient"/>
  </defs>
  <g id="Group_16" data-name="Group 16" transform="translate(-772.735 -144.362)">
    <g transform="matrix(1, 0, 0, 1, 772.74, 144.36)" filter="url(#Path_100)">
      <path id="Path_100-2" data-name="Path 100" d="M.032,134.134c0-1.469-.084-2.879.026-4.272.094-1.2.071-2.409.273-3.6A21.424,21.424,0,0,0,.5,124c.082-1.327.245-2.646.413-3.954.237-1.84.481-3.682.78-5.514.559-3.426,1.207-6.829,1.862-10.234.733-3.817,1.582-7.594,2.644-11.32a76.678,76.678,0,0,1,3.152-8.809c.717-1.7,1.415-3.409,2.211-5.062A118.65,118.65,0,0,1,17.29,68.176,49.655,49.655,0,0,1,20.8,63.1a45.278,45.278,0,0,1,3.135-3.686c2.078-2.08,4.141-4.179,6.38-6.068,1.917-1.618,3.844-3.218,5.871-4.669a86.557,86.557,0,0,1,7.85-5.013,67.672,67.672,0,0,1,11.61-5.224,51.543,51.543,0,0,1,6.6-1.821c1.336-.26,2.655-.621,3.994-.863,1.071-.194,2.165-.233,3.237-.418,1.6-.276,3.229-.227,4.828-.512a1.286,1.286,0,0,1,.254-.007c2.73.049,5.456-.333,8.186-.165,2.023.124,4.051.057,6.068.2,1.065.075,2.137.021,3.19.167.981.136,1.97.039,2.935.186,1.038.157,2.082.033,3.106.179,1.572.223,3.151.029,4.715.192,1.235.129,2.477.027,3.7.184,1.039.134,2.078.049,3.107.164a73.7,73.7,0,0,0,8.863.13,23.845,23.845,0,0,0,3.756-.307c.631-.107,1.28-.12,1.918-.176a36.152,36.152,0,0,0,3.966-.619,38.086,38.086,0,0,0,6.65-1.974c1.46-.586,2.9-1.225,4.327-1.9a63.231,63.231,0,0,0,9.922-6.346c2.6-1.876,5.2-3.756,7.752-5.7a88.134,88.134,0,0,1,10.551-6.823c2.034-1.135,4.092-2.214,6.16-3.27a70.011,70.011,0,0,1,9.529-4.063c2.329-.783,4.69-1.451,7.061-2.055,1.673-.426,3.342-.88,5.024-1.254,1.385-.308,2.773-.618,4.18-.823,1.436-.208,2.868-.409,4.312-.562A56.188,56.188,0,0,1,211.56.1c1.492.056,2.995.262,4.49.462a63.457,63.457,0,0,1,9.99,2.353c1.951.592,3.875,1.266,5.788,1.98,2.258.842,4.491,1.758,6.687,2.777,2.356,1.094,4.7,2.209,6.973,3.505a64.943,64.943,0,0,1,6.145,3.867c2.2,1.607,4.35,3.285,6.4,5.112,1.929,1.718,3.794,3.51,5.638,5.333,2.728,2.7,5.322,5.539,7.871,8.423,1.743,1.971,3.443,3.994,5.056,6.1,1.821,2.376,3.582,4.8,5.21,7.331a71.476,71.476,0,0,1,9.864,23.226c.367,1.632.675,3.275.961,4.921.215,1.24.251,2.515.384,3.773.182,1.713.238,3.436.376,5.15a31.438,31.438,0,0,1,.076,4.546c-.11,1.678-.209,3.361-.423,5.038-.41,3.215-1.055,6.373-1.676,9.541-.345,1.765-.787,3.5-1.291,5.205a48.616,48.616,0,0,1-1.688,4.7,66.831,66.831,0,0,1-4.379,8.635c-1.022,1.727-2.171,3.365-3.312,5.006a62,62,0,0,1-6.959,8.175c-1.43,1.447-2.9,2.852-4.447,4.165-1.211,1.031-2.353,2.156-3.542,3.217-1.035.925-2.1,1.809-3.139,2.731-.867.769-1.7,1.589-2.575,2.343-1.409,1.21-2.654,2.618-4.037,3.857-.13.117-.243.255-.362.384l-3.6,3.871c-1.615,1.736-3.085,3.613-4.582,5.465-1.44,1.78-2.784,3.633-4.085,5.529A51.071,51.071,0,0,0,240.7,171.3c-.863,1.582-1.688,3.19-2.428,4.85a45.084,45.084,0,0,0-2.835,8.631c-.356,1.6-.739,3.2-.988,4.822a70.042,70.042,0,0,1-2.743,11.38c-.786,2.376-1.662,4.712-2.657,7-.772,1.775-1.557,3.54-2.39,5.282a72.661,72.661,0,0,1-4.454,8.179c-1.185,1.833-2.452,3.6-3.782,5.321A81.048,81.048,0,0,1,211.982,234a58.384,58.384,0,0,1-6.809,5.9,64.313,64.313,0,0,1-9.448,5.806c-2.469,1.243-4.994,2.349-7.557,3.352-1.879.734-3.774,1.412-5.678,2.064-2.088.715-4.191,1.39-6.321,1.918-2.3.57-4.6,1.1-6.93,1.54-1.884.355-3.738.893-5.626,1.208-1.594.264-3.175.611-4.78.817-1.494.191-2.987.374-4.485.539-1.814.2-3.632.259-5.447.384-1.377.094-2.756.031-4.124.165-3.038.3-6.079.08-9.118.138-1.235-.333-2.51-.045-3.76-.306-.675-.141-1.388-.109-2.084-.212-1.1-.165-2.224-.226-3.323-.423-1.07-.192-2.144-.342-3.215-.511-.8-.126-1.6-.244-2.391-.395-1.147-.218-2.291-.458-3.434-.7-1.852-.387-3.7-.777-5.548-1.2-1.872-.43-3.743-.856-5.6-1.351-2.718-.724-5.43-1.467-8.122-2.307-3.517-1.1-7.022-2.23-10.47-3.559-2.694-1.038-5.372-2.125-8.013-3.318-3.289-1.485-6.536-3.066-9.756-4.715-1.285-.659-2.561-1.337-3.839-2.01-1.179-.621-2.377-1.2-3.542-1.85-3.646-2.029-7.249-4.141-10.737-6.481-2.086-1.4-4.177-2.789-6.2-4.3-2-1.493-3.967-3.035-5.846-4.708-1.468-1.308-2.956-2.592-4.419-3.906-.5-.445-.965-.927-1.448-1.389-2.32-2.225-4.534-4.576-6.656-7.017a84.264,84.264,0,0,1-5.707-7.159c-1.141-1.643-2.3-3.267-3.353-4.977a100.972,100.972,0,0,1-4.995-9.1c-.914-1.9-1.776-3.825-2.63-5.756-1.02-2.3-1.912-4.671-2.743-7.062-1.289-3.7-2.563-7.416-3.661-11.192-.831-2.858-1.552-5.747-2.145-8.677-.32-1.58-.6-3.169-.928-4.746-.2-.935-.277-1.9-.4-2.852-.168-1.339-.325-2.68-.485-4.021-.011-.09-.007-.183-.011-.275C.1,138.928-.071,136.5.032,134.134Z" transform="translate(12.89 282.05) rotate(-68)" fill="#fff" stroke="#fff" stroke-width="6"/>
    </g>
    <g id="Group_2" data-name="Group 2" transform="translate(837.898 219.86) rotate(-7)">
      <path id="Path_87" data-name="Path 87" d="M155.835,134.265l-.026-.167c-4.338-23.12-21.589-26.965-22.4-27.131a3.191,3.191,0,0,1-1.972-4.961c.079-.116,8.426-12.19,6.15-24.988a13.974,13.974,0,0,0-.427-1.7.283.283,0,0,1-.015-.046c-1.513-13.6-18.574-21.047-19.135-21.309-5.368-1.232-15.567.269-23.811,6.287a3.184,3.184,0,0,1-4.637-.986c-.3-.508-7.788-12.8-27.809-12.811h-.014c-19.163,0-26.206,19.408-26.275,19.6a3.184,3.184,0,0,1-6.007-2.113c.083-.238,8.661-23.86,32.282-23.86h.017c17.9.009,27.491,8.648,31.322,13.238,9.287-5.81,17.588-5.927,23.885-4.32.109.022.214.055.321.088a31.274,31.274,0,0,1,9.447,4.346,50.265,50.265,0,0,1,23.179-12.082c-2.712-5.906-10.646-18.952-28.218-20.3-14.394-1.1-20.726,8.359-23.118,11.92-.944,1.408-1.838,2.738-3.7,2.738a3.183,3.183,0,0,1-2.008-5.654c.117-.168.257-.382.424-.634,2.675-3.983,10.838-16.131,28.893-14.718,22.615,1.739,31.77,19.611,34.233,25.655a53.956,53.956,0,0,1,10.776.148c13.178,1.482,21.219,6.846,26.047,12.1-.547-7.924-2.646-18.76-9.451-26.382-5.6-6.272-13.655-9.452-23.943-9.452-.661,0-1.33.013-2.015.038L155,16.916l-.439-2.8c-.066-.381-1.923-10.059-15.619-13.3A29.386,29.386,0,0,0,132.195,0c-9.973,0-15.438,5.583-15.491,5.639l-2.02,2.107-2.276-1.829C112.342,5.866,104.978.1,95.431.1c-7.217,0-13.9,3.277-19.889,9.729-6.706,8.511-6.779,20.3-6.779,20.45a3.186,3.186,0,0,1-3.177,3.192h-.008A3.183,3.183,0,0,1,62.4,30.3,45.074,45.074,0,0,1,67.946,9.681a30.148,30.148,0,0,0-8.572-1.309c-8.664,0-15.664,4.191-20.811,12.457l-.832,1.334-1.565.152c-.189.019-19.427,2.073-29.7,14.977C1.121,44.015-.926,52.628.384,62.9c3.539,27.726,26.328,31.866,39.6,31.866,1.2,0,2.21-.038,3-.084A32.524,32.524,0,0,0,64.764,83.609a3.185,3.185,0,0,1,4.813,4.172A38.085,38.085,0,0,1,51.19,99.55c3.417,2.952,9.627,6.659,19.319,6.659a47.025,47.025,0,0,0,12.476-1.823l1.154-.32c3.918-2.084,7.73-5.951,9.658-13.054a3.184,3.184,0,1,1,6.146,1.669c-2.219,8.183-6.595,13.241-11.466,16.248a17.557,17.557,0,0,0,14.2,7.531,21.3,21.3,0,0,0,5.032-.637l3.832-.934.106,3.942c.021.533.7,13.515,16.418,18.267l2.011.606.232,2.089c.111.952,2.865,22.746,23.409,27.715C155.391,163.131,158.567,151.877,155.835,134.265Z" transform="translate(6.374 6.369)" fill="url(#linear-gradient)"/>
      <path id="Path_88" data-name="Path 88" d="M121.121,52.6c-.547-7.924-2.646-18.76-9.451-26.382-5.6-6.272-13.655-9.452-23.943-9.452-.661,0-1.33.013-2.015.038l-2.827.109-.439-2.8c-.066-.381-1.923-10.059-15.619-13.3A29.386,29.386,0,0,0,60.077,0C50.1,0,44.639,5.583,44.587,5.639l-2.02,2.107L40.291,5.918C40.225,5.866,32.86.1,23.313.1,16.1.1,9.409,3.38,3.425,9.832A27.722,27.722,0,0,0,0,15.562c7.346-3.011,24.354-8.261,38.361.265a31.925,31.925,0,0,1,11.7-1.129C72.68,16.437,81.835,34.309,84.3,40.353a53.956,53.956,0,0,1,10.776.148C108.252,41.983,116.293,47.347,121.121,52.6Z" transform="translate(78.491 6.369)" fill="#fff"/>
      <path id="Path_89" data-name="Path 89" d="M0,4.417S32.59-11.971,50,18.385c0,0,23.311-3.573,32.762,22.809,0,0-24.918-11.519-37.229-9.645C45.531,31.548,31.525,3.643,0,4.417Z" transform="translate(116.852 17.778)" fill="url(#linear-gradient-2)"/>
      <path id="Path_90" data-name="Path 90" d="M61.87,17.553C60.073,13.269,53.735,2.407,35.118.311A44.168,44.168,0,0,0,0,11.3c4.926,3.977,9.763,9.184,11.789,15.312.77,1.31,5.274,8.438,12.381,8.438,10.212,0,12.433-8.487,12.653-9.454a3.184,3.184,0,0,1,6.223,1.348A18.827,18.827,0,0,1,24.17,41.422a18.223,18.223,0,0,1-11.249-4.044A45.753,45.753,0,0,1,7.436,55.589c6.416,2.693,18.455,10.075,22.771,28.484,3.876-.245,10.776-1.694,14.584-8.548,5.273-9.49,4.868-24.808,4.73-27.844-.687-5.632-4.09-7.2-4.262-7.27a3.157,3.157,0,0,1-1.8-4.1A3.2,3.2,0,0,1,47.6,34.488a13.8,13.8,0,0,1,7.152,7.885C58.45,39.824,64.1,33.266,61.87,17.553Z" transform="translate(137.735 52.885)" fill="url(#linear-gradient-3)"/>
      <path id="Path_91" data-name="Path 91" d="M0,23.1A33.536,33.536,0,0,1,29.9,12.487C49,15.247,56.436,28.2,56.436,28.2s13.372-14.434,30.38-4.938C105.659,33.78,95.426,60.45,95.426,60.45s6.974-.756,10.045-14.855S93.729,4.313,71.93,8.03s-14.221,6.156-14.221,6.156S41.15-2.5,22.257.322,0,23.1,0,23.1Z" transform="translate(41.84 49.327)" fill="#fff"/>
      <path id="Path_92" data-name="Path 92" d="M33.755,4.417S4.238,5.678.237,36.24c0,0-2.728-19.109,10.327-28.875S36.143.36,36.143.36Z" transform="translate(35.596 34.07)" fill="#fff"/>
      <path id="Path_93" data-name="Path 93" d="M206.39,70.6c-.028-.118-.162-.613-.431-1.367.394-4.564,1.565-26.723-11.026-40.853-6.817-7.651-16.395-11.554-28.476-11.606C164.845,12.423,160.089,4.14,146.785.988A35.769,35.769,0,0,0,138.568,0a29.944,29.944,0,0,0-17.981,5.8A36.117,36.117,0,0,0,101.8.1,30.2,30.2,0,0,0,85.074,5.179a27.921,27.921,0,0,0-6.816,5.474,36.923,36.923,0,0,0-12.51-2.28c-7.31,0-17.528,2.5-25.386,14.176-5.246.788-22.217,4.262-32.472,17.111C1.407,47.782-1.1,58.014.44,70.071c4,31.3,29.369,36.725,42.919,37.355a27.456,27.456,0,0,0,2.851.131c.854,0,1.882-.037,3.021-.126.311-.014.605-.031.868-.048,2.939,3.534,11.316,11.563,26.784,11.563.186,0,.38-.016.566-.018a23.215,23.215,0,0,0,3.426.251,27.791,27.791,0,0,0,8.068-1.227c2.747,4.1,9.1,11.245,20.1,11.245a26.12,26.12,0,0,0,3.095-.189c1.468,6.419,6.467,15.553,18.564,19.928,1.386,6.744,7.547,27.847,30.729,31.71l2.2.365,1.1-1.937c.278-.49,6-10.938,4.726-30.7,0-.035.006-.068,0-.1q-.121-2.624-.415-5.028c4.939-.469,13.979-2.618,19.049-11.747,4.839-8.71,5.585-20.913,5.6-27.42.044-.781.058-1.534.039-2.248,4.724-2.453,14.28-9.884,12.522-29.3A3.16,3.16,0,0,0,206.39,70.6ZM185.334,87.373a3.2,3.2,0,0,0-4.141,1.821,3.157,3.157,0,0,0,1.8,4.1c.172.073,3.575,1.638,4.262,7.27.138,3.036.542,18.355-4.73,27.844-3.808,6.854-10.708,8.3-14.584,8.548-4.317-18.409-16.355-25.791-22.771-28.484a45.753,45.753,0,0,0,5.485-18.211,18.223,18.223,0,0,0,11.249,4.044,18.827,18.827,0,0,0,18.876-14.474,3.184,3.184,0,0,0-6.223-1.348c-.221.967-2.442,9.454-12.653,9.454-7.107,0-11.611-7.127-12.381-8.438-2.026-6.128-6.863-11.335-11.789-15.312A44.168,44.168,0,0,1,172.853,53.2c18.617,2.1,24.955,12.958,26.752,17.241,2.231,15.713-3.42,22.271-7.12,24.82A13.8,13.8,0,0,0,185.334,87.373Zm-48.656,58.79-.232-2.089-2.011-.606c-15.714-4.752-16.4-17.734-16.418-18.267l-.106-3.942-3.832.934a21.3,21.3,0,0,1-5.032.637,17.557,17.557,0,0,1-14.2-7.531c4.871-3.007,9.247-8.065,11.466-16.248a3.184,3.184,0,1,0-6.146-1.669c-1.928,7.1-5.74,10.97-9.658,13.054l-1.154.32a47.025,47.025,0,0,1-12.476,1.823c-9.692,0-15.9-3.706-19.319-6.659A38.085,38.085,0,0,0,75.951,94.149a3.185,3.185,0,0,0-4.813-4.172,32.524,32.524,0,0,1-21.783,11.069c-.789.046-1.8.084-3,.084-13.269,0-36.058-4.14-39.6-31.866-1.31-10.268.737-18.882,6.087-25.6,10.269-12.9,29.507-14.959,29.7-14.977l1.565-.152.832-1.334c5.147-8.266,12.147-12.457,20.811-12.457A30.148,30.148,0,0,1,74.32,16.05a45.074,45.074,0,0,0-5.551,20.617,3.183,3.183,0,0,0,3.183,3.177h.008a3.186,3.186,0,0,0,3.177-3.192c0-.149.074-11.939,6.779-20.45C87.9,9.749,94.588,6.472,101.8,6.472c9.547,0,16.911,5.763,16.978,5.815l2.276,1.829,2.02-2.107c.052-.056,5.517-5.639,15.491-5.639a29.386,29.386,0,0,1,6.749.817c13.7,3.244,15.552,12.922,15.619,13.3l.439,2.8,2.827-.109c.685-.025,1.354-.038,2.015-.038,10.288,0,18.343,3.181,23.943,9.452,6.805,7.622,8.9,18.457,9.451,26.382-4.827-5.257-12.868-10.62-26.047-12.1a53.956,53.956,0,0,0-10.776-.148c-2.463-6.044-11.618-23.916-34.233-25.655C110.5,19.653,102.338,31.8,99.662,35.784c-.167.252-.307.465-.424.634a3.183,3.183,0,0,0,2.008,5.654c1.866,0,2.76-1.33,3.7-2.738,2.392-3.561,8.724-13.016,23.118-11.92,17.572,1.353,25.505,14.4,28.218,20.3A50.265,50.265,0,0,0,133.107,59.8a31.274,31.274,0,0,0-9.447-4.346c-.107-.033-.212-.066-.321-.088-6.3-1.607-14.6-1.49-23.885,4.32C95.623,55.1,86.033,46.459,68.133,46.45h-.017c-23.622,0-32.2,23.622-32.282,23.86a3.184,3.184,0,1,0,6.007,2.113c.07-.2,7.112-19.6,26.275-19.6h.014c20.022.009,27.51,12.3,27.809,12.811a3.184,3.184,0,0,0,4.637.986c8.244-6.018,15.477-6.458,20.845-5.227,7.424,1.912,18.488,8.748,22.1,20.249,0,.016.009.03.015.046a13.974,13.974,0,0,1,.427,1.7c2.276,12.8-6.071,24.873-6.15,24.988a3.191,3.191,0,0,0,1.972,4.961c.808.166,18.06,4.011,22.4,27.131l.026.167c2.732,17.611-.444,28.865-2.122,33.244C139.543,168.909,136.789,147.114,136.678,146.162Z" fill="#262261"/>
      <path id="Path_94" data-name="Path 94" d="M35.118.311A44.168,44.168,0,0,0,0,11.3a44.45,44.45,0,0,1,8.157,8.409C12.538,15.751,23.939,7.368,39.614,10.2c16.6,3,21.275,14.738,22.424,18.9a40.917,40.917,0,0,0-.167-11.55C60.073,13.269,53.735,2.407,35.118.311Z" transform="translate(137.735 52.885)" fill="#fff"/>
      <path id="Path_95" data-name="Path 95" d="M39.786,26.694S47.323,6.74,64.521,9.207a38.91,38.91,0,0,1,3.425-7.9A30.148,30.148,0,0,0,59.374,0C50.71,0,43.71,4.191,38.563,12.457l-.832,1.334-1.565.152c-.189.019-19.427,2.073-29.7,14.977-5.35,6.722-7.4,15.336-6.087,25.6C2.2,68.76,9.1,76.767,17.169,81.2,15.762,80.3-9.355,37.095,39.786,26.694Z" transform="translate(6.374 14.741)" fill="#fff"/>
      <path id="Path_96" data-name="Path 96" d="M21.168.088C9.653-.79,3.307,5.082,0,9.292c17.7-6.434,34.89-1.977,42.838,13.03a50.046,50.046,0,0,1,6.547-1.929C46.673,14.487,38.739,1.441,21.168.088Z" transform="translate(106.901 27.327)" fill="#fff"/>
      <path id="Path_97" data-name="Path 97" d="M0,8.553S21.226-.576,38.422,13.647C38.422,13.647,23.775-13.313,0,8.553Z" transform="translate(77.259 74.701)" fill="#fff"/>
    </g>
    <text id="G2i" transform="translate(882.618 385.057)" fill="#262261" font-size="42" font-family="GTPressuraMono, GT Pressura Mono"><tspan x="0" y="0">G2i</tspan></text>
    <g id="Group_3" data-name="Group 3" transform="translate(501 -191.413)">
      <path id="Path_69" data-name="Path 69" d="M556.493,807.081c0,5.557-30.436,10.063-67.977,10.063s-67.979-4.506-67.979-10.063,30.435-10.062,67.979-10.062S556.493,801.523,556.493,807.081Z" transform="translate(-29.37 -80.962)" fill="#262261" opacity="0.228"/>
      <g id="Group_14" data-name="Group 14" transform="translate(347.79 606.388)">
        <path id="Path_70" data-name="Path 70" d="M380.3,701.181a8.574,8.574,0,1,1-8.574-8.573A8.575,8.575,0,0,1,380.3,701.181Z" transform="translate(-353.993 -641.197)" fill="#262261"/>
        <path id="Path_71" data-name="Path 71" d="M646.585,741.582a8.575,8.575,0,1,1-8.575-8.573A8.575,8.575,0,0,1,646.585,741.582Z" transform="translate(-461.496 -657.508)" fill="#262261"/>
        <path id="Path_72" data-name="Path 72" d="M543.35,635.4a8.574,8.574,0,1,1-8.574-8.574A8.575,8.575,0,0,1,543.35,635.4Z" transform="translate(-419.818 -614.64)" fill="#262261"/>
        <path id="Path_73" data-name="Path 73" d="M567.445,664.978a19.562,19.562,0,0,1-.25-3.622c0-1.646.107-3.568.317-5.716,1.137-11.729.955-15.458.591-17.74a25.762,25.762,0,0,0-3.7-9.5,21.629,21.629,0,0,0-8.855-7.782,23.353,23.353,0,0,0-10.858-3h-4.065a21.236,21.236,0,0,0-8.765,1.5c-.67.258-1.5.613-2.587,1.113l-.387.163a14.416,14.416,0,0,0-3.97,2.4,16.431,16.431,0,0,0-13.3-11.169,27.818,27.818,0,0,0-4.274-.311c-5.341,0-9.862,1.726-13.072,4.992a20.328,20.328,0,0,0-5.308,11.3c-.023.141-.045.283-.067.422a17.059,17.059,0,0,0-6.858,3.284,20.864,20.864,0,0,0-5.756,7.3,18.893,18.893,0,0,0-3.782-6.078,15.782,15.782,0,0,0-11.74-4.694A16.4,16.4,0,0,0,447.537,616.9a27.523,27.523,0,0,0-4.272-.312c-5.341,0-9.862,1.727-13.072,4.993a20.29,20.29,0,0,0-5.3,11.245q-.691.071-1.38.183a15.049,15.049,0,0,0-6.513-7.02c.021-.314.033-.631.033-.951,0-7.39-4.008-13.456-10.975-16.631-2.94-1.357-6.659-2.016-11.372-2.016-.215,0-.434,0-.6,0-5.473.041-9.216.082-11.09.122a155.237,155.237,0,0,0-19.776,1.629,17.043,17.043,0,0,0-11.838,6.91,17.762,17.762,0,0,0-3.594,10.534,15.182,15.182,0,0,0,4.292,10.553,20.52,20.52,0,0,0,6.567,4.773l.994.5,1.077.28a29.793,29.793,0,0,0,5.455.852c.052,1.965.066,4.406.042,7.291-.042,3.735-.042,8.339,0,13.648,0,3.728.116,6.93.34,9.485a15.375,15.375,0,0,0,7.228,11.72l.215.134a18.378,18.378,0,0,0,9.658,2.7c.162,0,.326,0,.529-.008a28.044,28.044,0,0,0,6.878-1.074l.488-.14.473-.185a14.473,14.473,0,0,0,2.371-1.194,17.126,17.126,0,0,0,.837,2.374l.083.181a19.062,19.062,0,0,0,9.261,9.108,13.72,13.72,0,0,0,6.2,1.424,16.661,16.661,0,0,0,9.4-3.133c5.65-3.87,6.688-10.658,6.879-14.651l.261-.3a20.913,20.913,0,0,0,.283,3.125c1.1,6.807,5.245,11.819,11.362,13.753a20.409,20.409,0,0,0,6.217.991,17.367,17.367,0,0,0,7.171-1.524,14.568,14.568,0,0,0,6.106-5.015q.566.966,1.133,1.847c1.992,3.143,6.172,7.059,14.746,7.857.537.054,1.085.079,1.628.079a17.411,17.411,0,0,0,12.931-5.943l.595-.636.485-.726a81.6,81.6,0,0,0,4.805-8.172,15.873,15.873,0,0,0,8.26,5.958,20.408,20.408,0,0,0,6.219.993,17.384,17.384,0,0,0,7.171-1.524,14.8,14.8,0,0,0,4.751-3.32,22.146,22.146,0,0,0,11.671,3.711,32.106,32.106,0,0,0,12.442-1.777,30.8,30.8,0,0,0,3.721-1.539,14.13,14.13,0,0,0,3.192.925,19.282,19.282,0,0,0,3.138.265,15.246,15.246,0,0,0,13.247-7.359,13.009,13.009,0,0,0,1.907-7A19.038,19.038,0,0,0,567.445,664.978Z" transform="translate(-347.79 -606.388)" fill="#262261"/>
        <path id="Path_74" data-name="Path 74" d="M566.217,670.826c-.03-.05-.728-1.277-.728-5.894,0-1.817.115-3.909.343-6.224,1.088-11.232.909-14.666.631-16.4a20.508,20.508,0,0,0-2.978-7.565,16.529,16.529,0,0,0-6.8-5.866,18.254,18.254,0,0,0-8.412-2.406h-4.113a16.14,16.14,0,0,0-6.743,1.116c-.575.218-1.333.544-2.365,1.017l-.257.117-.064.038h-.007l-.293.108c-2.971,1.19-5.1,3.8-6.326,7.746l-.02.07a11.478,11.478,0,0,0-.523,3.271,10.857,10.857,0,0,0,4.039,8.41,13.69,13.69,0,0,0,2.794,1.88,20.142,20.142,0,0,0-10.552,5.445c-.38.369-.738.75-1.08,1.138a61.582,61.582,0,0,0-.36-6.17,19.119,19.119,0,0,0-2.038-6.432,16.849,16.849,0,0,0,2.3-2.665,11.585,11.585,0,0,0,1.925-6.75,23.528,23.528,0,0,0-.463-4.428c-1.071-5.554-4.633-9.189-9.753-9.973a22.512,22.512,0,0,0-3.452-.247c-3.947,0-7.079,1.148-9.306,3.414a15.248,15.248,0,0,0-3.863,8.468,20.25,20.25,0,0,0-.317,3.318,14.038,14.038,0,0,0,.085,1.478,8.473,8.473,0,0,0-2.107-.265,10.825,10.825,0,0,0-6.582,2.5c-2.676,2.054-4.863,5.855-6.88,11.96l-.038.119c-.623,2.043-1.534,4.95-2.78,8.864-.521-2.122-1.035-4.244-1.537-6.347l-.013-.055q-.553-2.208-1.656-6.566l-.036-.131a16.62,16.62,0,0,0-3.612-7.137,10.337,10.337,0,0,0-7.691-3.084,15.412,15.412,0,0,0-1.7.1,12.071,12.071,0,0,0-2.563.6c-.072-.563-.158-1.136-.272-1.728-1.071-5.552-4.634-9.189-9.753-9.972a22.3,22.3,0,0,0-3.452-.246c-3.947,0-7.079,1.147-9.306,3.414a15.234,15.234,0,0,0-3.863,8.466,20.246,20.246,0,0,0-.317,3.318q0,.562.042,1.1-.614-.088-1.257-.137a18.738,18.738,0,0,0-8.716,1.5q-.15-.965-.351-1.934a10.293,10.293,0,0,0-9.032-8.293,7.7,7.7,0,0,0,1.289-4.272c0-5.309-2.815-9.515-7.9-11.836a22.12,22.12,0,0,0-9.159-1.529l-.562,0c-5.446.041-9.178.083-11.054.122a150.854,150.854,0,0,0-19.131,1.58,11.9,11.9,0,0,0-8.276,4.771,12.6,12.6,0,0,0-2.593,7.44,10,10,0,0,0,2.934,7.015,15.428,15.428,0,0,0,5.007,3.586l.5.249.538.139a24.75,24.75,0,0,0,4.739.71,38.521,38.521,0,0,0,4.4-.029l.139,2.142c.154,2.352.211,5.888.173,10.493-.042,3.689-.042,8.274,0,13.588,0,3.572.11,6.631.324,9.058a10.006,10.006,0,0,0,4.807,7.7l.108.067a13.165,13.165,0,0,0,6.92,1.93c.119,0,.238,0,.377,0a22.847,22.847,0,0,0,5.581-.874l.244-.07.238-.092c2.872-1.128,6.38-4.136,6.773-12.063l.007-.261c0-.276-.013-.736-.067-1.739l.695,1.709c.308,3.6.6,6.442.875,8.591.627,4.875,1.234,6.692,1.69,7.728l.041.092a14,14,0,0,0,6.834,6.6,8.483,8.483,0,0,0,3.835.866,11.46,11.46,0,0,0,6.413-2.21c4.145-2.838,4.624-8.493,4.624-12.5,0-1.223-.073-2.949-.226-5.276-.167-2.553-.2-3.9-.2-4.581a14.5,14.5,0,0,1,.481-4.665c1.726-2.03,4.991-3.262,9.71-3.658a11.077,11.077,0,0,0,1.59-.235c-.013.508-.027,1.06-.042,1.667-.1,4.093-.234,9.188-.383,12.273-.293,5.539-.135,7.494.067,8.629.773,4.854,3.534,8.262,7.762,9.6a15.113,15.113,0,0,0,4.608.741,12.172,12.172,0,0,0,5.031-1.071A9.785,9.785,0,0,0,459.548,686a45.462,45.462,0,0,0-.469-6.668,35.64,35.64,0,0,1-.391-4.978c0-.032,0-.07,0-.106,3.082,8.618,6.019,15.055,8.935,19.593,1.977,3.118,5.62,4.945,10.8,5.427.369.036.742.055,1.11.055a12.269,12.269,0,0,0,9.075-4.271l.3-.319.243-.363a68.894,68.894,0,0,0,7.475-14.438c.227-.6,1.024-2.423,3.759-7.933-.28,5.4-.125,7.337.076,8.46.773,4.853,3.534,8.261,7.761,9.6a15.194,15.194,0,0,0,4.609.74,12.163,12.163,0,0,0,5.031-1.071,9.448,9.448,0,0,0,5.467-6.753,23.356,23.356,0,0,0,4.339,3.856,16.961,16.961,0,0,0,9.055,2.846c.492.026.991.042,1.485.042a27.265,27.265,0,0,0,8.951-1.543,23.172,23.172,0,0,0,5.425-2.625,8.929,8.929,0,0,0,4.061,1.8,13.863,13.863,0,0,0,2.273.194,9.968,9.968,0,0,0,8.765-4.873,7.821,7.821,0,0,0,1.109-4.2A14.37,14.37,0,0,0,566.217,670.826Zm-27.81-.07a1.832,1.832,0,0,1-.317-.231,1.884,1.884,0,0,1,.153-.683.477.477,0,0,1,.165.915Z" transform="translate(-351.367 -609.965)" fill="#fff"/>
        <path id="Path_75" data-name="Path 75" d="M408.727,636.78a23.057,23.057,0,0,1-9.489,1.715q-1.9,0-4.039-.183,2.263,19.1,3,28.953.55,7.59.55,8.755-.307,6.183-3.429,7.406a17.4,17.4,0,0,1-4.284.674,7.943,7.943,0,0,1-4.408-1.163,4.707,4.707,0,0,1-2.387-3.673q-.307-3.49-.306-8.631-.062-8.019,0-13.53.06-7.161-.184-10.9l-.49-7.529a56.981,56.981,0,0,1-9,.49,19.317,19.317,0,0,1-3.734-.552,10.246,10.246,0,0,1-3.427-2.387,4.85,4.85,0,0,1-1.592-3.489,7.423,7.423,0,0,1,1.592-4.347,6.621,6.621,0,0,1,4.713-2.631A144.594,144.594,0,0,1,390.3,624.23q2.816-.06,11.019-.122,5.08-.061,7.468,1.04,4.835,2.2,4.836,7.039Q413.624,634.578,408.727,636.78Z" transform="translate(-354.944 -613.541)" fill="#ec467b"/>
        <path id="Path_76" data-name="Path 76" d="M463.853,662.28q6.487.491,6.855,5.693.428,5.266-3.856,5.57-9.55.8-13.528,5.755-1.531,1.9-1.531,7.836,0,1.652.215,4.928t.214,4.928q0,6.547-2.326,8.14a6.3,6.3,0,0,1-3.429,1.286A3.253,3.253,0,0,1,445,706.11a8.884,8.884,0,0,1-4.408-4.1,27.441,27.441,0,0,1-1.284-6.274q-.614-4.744-1.348-14.6t-1.408-14.815a36.553,36.553,0,0,1-.367-4.713q0-4.164,1.469-5.755,2.2-2.388,3.918-2.265a16.464,16.464,0,0,1,2.326-.185q5.2,0,6.121,4.286a31.6,31.6,0,0,1,.429,10.528Q457.363,661.792,463.853,662.28Z" transform="translate(-383.476 -625.369)" fill="#0042ac"/>
        <path id="Path_77" data-name="Path 77" d="M499.048,657.43a10.587,10.587,0,0,1-3.613-2.326,5.836,5.836,0,0,1-1.285-3.979,15.464,15.464,0,0,1,.244-2.45,10.162,10.162,0,0,1,2.419-5.631q1.8-1.836,5.54-1.836a17.021,17.021,0,0,1,2.632.184q4.407.673,5.387,5.753a18.185,18.185,0,0,1,.367,3.427,6.422,6.422,0,0,1-.979,3.736q-2.755,3.918-6.611,3.794A10.959,10.959,0,0,1,499.048,657.43Zm3.692,3.133a16.2,16.2,0,0,1,2.326.246q2.63.549,3.551,6.427c.367,2.286.468,14.206.3,17.389a40.859,40.859,0,0,0,.429,5.846,41.105,41.105,0,0,1,.429,5.845,4.481,4.481,0,0,1-2.633,4.347,6.874,6.874,0,0,1-2.877.612,9.8,9.8,0,0,1-3-.49q-3.489-1.1-4.162-5.448a41.9,41.9,0,0,1,0-7.469c.284-5.916.489-18.491.612-19.347q.979-7.1,4.346-7.837A1.126,1.126,0,0,1,502.739,660.564Z" transform="translate(-406.879 -620.446)" fill="#262261"/>
        <path id="Path_78" data-name="Path 78" d="M606.511,648.572a10.6,10.6,0,0,1-3.612-2.326,5.831,5.831,0,0,1-1.285-3.979,15.378,15.378,0,0,1,.244-2.448,10.156,10.156,0,0,1,2.419-5.631q1.8-1.836,5.54-1.836a17.035,17.035,0,0,1,2.632.182q4.407.674,5.387,5.755a18.234,18.234,0,0,1,.367,3.427,6.425,6.425,0,0,1-.979,3.734q-2.756,3.92-6.611,3.795A10.972,10.972,0,0,1,606.511,648.572Zm3.692,3.135a16.074,16.074,0,0,1,2.327.244q2.631.549,3.55,6.427c.367,2.286.469,14.207.306,17.389a40.849,40.849,0,0,0,.429,5.846,41,41,0,0,1,.429,5.846,4.482,4.482,0,0,1-2.632,4.346,6.9,6.9,0,0,1-2.878.612,9.81,9.81,0,0,1-3-.49q-3.489-1.1-4.163-5.448a41.9,41.9,0,0,1,0-7.468c.286-5.916.489-18.492.612-19.348q.978-7.1,4.346-7.836A1.121,1.121,0,0,1,610.2,651.707Z" transform="translate(-450.264 -616.87)" fill="#262261"/>
        <path id="Path_79" data-name="Path 79" d="M568.577,663.85a11.008,11.008,0,0,1,1.408,4.591,38.043,38.043,0,0,1-1.041,7.041,45.359,45.359,0,0,1-3.979,10.467q-4.1,8.2-4.836,10.162a63.243,63.243,0,0,1-6.918,13.345q-2.694,2.876-5.815,2.571-5.265-.49-6.856-3-4.407-6.857-9.243-20.874-3-8.694-3.305-9.733-1.961-6.55-1.776-9.917.184-3,.306-3.612a5.931,5.931,0,0,1,1.929-3.276,6.383,6.383,0,0,1,3.519-1.56,5.635,5.635,0,0,1,4.959,1.407,11.878,11.878,0,0,1,2.326,4.9q1.1,4.349,1.653,6.551,1.346,5.633,2.755,11.264,1.959,7.529,3.979,10.407a24.733,24.733,0,0,0,2.449-6.366q1.284-4.653,1.9-6.613,2.326-7.283,3.429-10.9,2.448-7.407,5.081-9.428a5.718,5.718,0,0,1,3.367-1.408Q566.312,659.872,568.577,663.85Z" transform="translate(-419.818 -627.981)" fill="#0042ac"/>
        <path id="Path_80" data-name="Path 80" d="M657.1,642.926h4.163a13.4,13.4,0,0,1,5.968,1.806,11.608,11.608,0,0,1,4.745,3.947,15.287,15.287,0,0,1,2.265,5.632q.488,3.061-.674,15.058-.365,3.734-.367,6.735,0,6.243,1.529,8.691a9.552,9.552,0,0,1,1.776,4.836,2.671,2.671,0,0,1-.306,1.408,4.734,4.734,0,0,1-4.284,2.387,8.677,8.677,0,0,1-1.408-.122q-2.573-.428-4.469-4.836l-.612,1.224a13.689,13.689,0,0,1-6.979,4.652A21.711,21.711,0,0,1,650,695.571a11.784,11.784,0,0,1-6.306-1.9,15.559,15.559,0,0,1-7.161-13.467,12.765,12.765,0,0,1,3.978-9.55,15.156,15.156,0,0,1,9.733-4.284q.856-.061,2.2-.061a18.242,18.242,0,0,1,9.489,2.265q1.04.8,1.714,1.285.184-1.223.184-1.346a23.812,23.812,0,0,0,.367-3.856,9.142,9.142,0,0,0-.918-4.346q-1.531-2.879-3.673-3.307a13.929,13.929,0,0,0-5.51.307,6.283,6.283,0,0,1-1.346.122,7.1,7.1,0,0,1-4.714-1.9,5.679,5.679,0,0,1-2.2-4.408,6.428,6.428,0,0,1,.306-1.775q1.1-3.55,3.244-4.408a4.5,4.5,0,0,0,.857-.368q1.469-.673,2.142-.918A11.1,11.1,0,0,1,657.1,642.926Zm-2.695,41.994a3.653,3.653,0,0,0,1.959-3.185,5.5,5.5,0,0,0-.367-1.775q-1.1-3.122-4.04-3.122-5.021,0-5.387,3.918-.369,3.429,1.775,4.652a4.388,4.388,0,0,0,2.265.612A6.88,6.88,0,0,0,654.409,684.92Z" transform="translate(-464.363 -621.137)" fill="#ec477b"/>
        <path id="Path_81" data-name="Path 81" d="M375.461,728.525a4.976,4.976,0,1,1-4.977-4.977A4.975,4.975,0,0,1,375.461,728.525Z" transform="translate(-354.944 -653.688)" fill="#262261"/>
        <path id="Path_82" data-name="Path 82" d="M531.924,611.877a4.977,4.977,0,1,1-4.977-4.977A4.976,4.976,0,0,1,531.924,611.877Z" transform="translate(-418.11 -606.595)" fill="#262261"/>
        <path id="Path_83" data-name="Path 83" d="M359.3,717.622a3.445,3.445,0,1,1-3.445-3.445A3.445,3.445,0,0,1,359.3,717.622Z" transform="translate(-349.657 -649.905)" fill="#262261"/>
        <path id="Path_84" data-name="Path 84" d="M622.414,759.435a3.445,3.445,0,1,1-3.445-3.446A3.445,3.445,0,0,1,622.414,759.435Z" transform="translate(-455.88 -666.785)" fill="#262261"/>
        <path id="Path_85" data-name="Path 85" d="M549.911,612.4a3.445,3.445,0,1,1-3.446-3.445A3.445,3.445,0,0,1,549.911,612.4Z" transform="translate(-426.609 -607.425)" fill="#262261"/>
      </g>
    </g>
  </g>
</svg>
