<svg xmlns="http://www.w3.org/2000/svg" width="98.011" height="89.751" viewBox="0 0 98.011 89.751">
  <g id="Group_15" data-name="Group 15" transform="translate(0.56 11.28) rotate(-7)">
    <path id="Path_87" data-name="Path 87" d="M64.892,56.742l-.011-.07c-1.806-9.771-8.99-11.4-9.327-11.466a1.337,1.337,0,0,1-.969-.825,1.361,1.361,0,0,1,.148-1.272c.033-.049,3.509-5.152,2.561-10.56a5.977,5.977,0,0,0-.178-.72.12.12,0,0,1-.006-.02c-.63-5.746-7.734-8.895-7.968-9.005-2.235-.521-6.482.114-9.915,2.657a1.306,1.306,0,0,1-1.057.229,1.326,1.326,0,0,1-.874-.646c-.124-.215-3.243-5.41-11.58-5.414H25.71c-7.98,0-10.912,8.2-10.941,8.285a1.327,1.327,0,0,1-1.251.9,1.3,1.3,0,0,1-.44-.077,1.351,1.351,0,0,1-.811-1.716c.035-.1,3.606-10.083,13.443-10.083h.007c7.454,0,11.448,3.655,13.043,5.595a12.27,12.27,0,0,1,9.946-1.826,1.378,1.378,0,0,1,.134.037,12.938,12.938,0,0,1,3.934,1.836,20.842,20.842,0,0,1,9.652-5.106,14.075,14.075,0,0,0-11.75-8.581,9.968,9.968,0,0,0-9.627,5.037c-.393.6-.766,1.157-1.542,1.157a1.349,1.349,0,0,1-.836-2.39c.049-.071.107-.161.177-.268a12.55,12.55,0,0,1,12.032-6.22c9.417.735,13.23,8.288,14.255,10.842a22.141,22.141,0,0,1,4.487.062c5.488.626,8.836,2.893,10.846,5.115-.228-3.349-1.1-7.928-3.935-11.149-2.332-2.65-5.686-3.995-9.97-3.995-.275,0-.554.005-.839.016l-1.177.046-.183-1.182c-.028-.161-.8-4.251-6.5-5.622A12.067,12.067,0,0,0,55.048,0,9.3,9.3,0,0,0,48.6,2.383l-.841.891L46.809,2.5A12.534,12.534,0,0,0,39.739.044c-3.005,0-5.79,1.385-8.282,4.112-2.792,3.6-2.823,8.58-2.823,8.642a1.337,1.337,0,0,1-1.323,1.349h0A1.335,1.335,0,0,1,25.982,12.8a19.278,19.278,0,0,1,2.312-8.713,12.386,12.386,0,0,0-3.57-.553c-3.608,0-6.523,1.771-8.666,5.264l-.346.564-.652.064c-.079.008-8.09.876-12.366,6.33C.467,18.6-.386,22.241.16,26.581,1.634,38.3,11.123,40.047,16.649,40.047c.5,0,.92-.016,1.249-.036a13.469,13.469,0,0,0,9.071-4.678,1.314,1.314,0,0,1,1.87-.136,1.36,1.36,0,0,1,.134,1.9,15.83,15.83,0,0,1-7.657,4.974,11.886,11.886,0,0,0,8.045,2.814,19.315,19.315,0,0,0,5.2-.771l.48-.135a8.321,8.321,0,0,0,4.022-5.517,1.324,1.324,0,0,1,1.627-.946,1.348,1.348,0,0,1,.932,1.652,11.112,11.112,0,0,1-4.775,6.866,7.287,7.287,0,0,0,5.912,3.183,8.748,8.748,0,0,0,2.1-.269l1.6-.395.044,1.666c.009.225.293,5.712,6.837,7.72l.838.256.1.883c.046.4,1.193,9.613,9.748,11.713C64.708,68.94,66.03,64.184,64.892,56.742Z" transform="translate(3.614 3.611)" fill="none"/>
    <path id="Path_89" data-name="Path 89" d="M0,2.5s18.48-9.292,28.35,7.92c0,0,13.218-2.026,18.577,12.933,0,0-14.129-6.532-21.11-5.469C25.817,17.889,17.876,2.066,0,2.5Z" transform="translate(37.154 10.081)" fill="none"/>
    <path id="Path_90" data-name="Path 90" d="M35.082,9.953C34.064,7.524,30.469,1.365,19.913.177A25.045,25.045,0,0,0,0,6.409c2.793,2.255,5.536,5.208,6.685,8.683.436.743,2.991,4.784,7.02,4.784a7.012,7.012,0,0,0,7.175-5.361,1.805,1.805,0,0,1,3.529.764,10.675,10.675,0,0,1-10.7,8.207,10.333,10.333,0,0,1-6.379-2.293A25.943,25.943,0,0,1,4.217,31.52c3.638,1.527,10.464,5.713,12.912,16.151a9.85,9.85,0,0,0,8.27-4.847c2.99-5.381,2.76-14.067,2.682-15.789-.389-3.193-2.319-4.081-2.417-4.122a1.79,1.79,0,0,1-1.022-2.326,1.816,1.816,0,0,1,2.348-1.033,7.824,7.824,0,0,1,4.055,4.471C33.143,22.582,36.347,18.863,35.082,9.953Z" transform="translate(48.996 16.789)" fill="none"/>
    <path id="Path_93" data-name="Path 93" d="M87.938,30.595c-.012-.051-.069-.265-.184-.593.168-1.978.667-11.581-4.7-17.7-2.9-3.316-6.986-5.007-12.133-5.03C70.237,5.384,68.21,1.794,62.542.428A15,15,0,0,0,59.041,0a12.621,12.621,0,0,0-7.662,2.514,15.21,15.21,0,0,0-8-2.469,12.714,12.714,0,0,0-7.129,2.2,11.936,11.936,0,0,0-2.9,2.372,15.5,15.5,0,0,0-5.33-.988c-3.115,0-7.469,1.084-10.816,6.144-2.235.341-9.466,1.847-13.836,7.415C.6,20.708-.469,25.142.187,30.367,1.891,43.931,12.7,46.283,18.474,46.556a11.5,11.5,0,0,0,1.215.057c.364,0,.8-.016,1.287-.055.133-.006.258-.013.37-.021a14.383,14.383,0,0,0,11.412,5.011c.079,0,.162-.007.241-.008a9.729,9.729,0,0,0,1.46.109,11.657,11.657,0,0,0,3.437-.532,10.232,10.232,0,0,0,8.566,4.873,10.943,10.943,0,0,0,1.319-.082,12.107,12.107,0,0,0,7.91,8.637c.591,2.923,3.215,12.068,13.093,13.743l.936.158.467-.839c.118-.213,2.558-4.74,2.014-13.3,0-.015,0-.029,0-.044q-.052-1.137-.177-2.179a10.086,10.086,0,0,0,8.116-5.091c2.062-3.775,2.38-9.063,2.387-11.883.019-.338.025-.665.017-.974,2.013-1.063,6.085-4.284,5.335-12.7A1.391,1.391,0,0,0,87.938,30.595Zm-8.971,7.271a1.358,1.358,0,0,0-1.765.789,1.376,1.376,0,0,0,.768,1.778c.073.032,1.523.71,1.816,3.151.059,1.316.231,7.955-2.016,12.067a7.375,7.375,0,0,1-6.214,3.7c-1.839-7.978-6.969-11.177-9.7-12.344a20.073,20.073,0,0,0,2.337-7.892,7.686,7.686,0,0,0,4.793,1.752A8.058,8.058,0,0,0,77.027,34.6a1.376,1.376,0,0,0-1.037-1.631,1.361,1.361,0,0,0-1.615,1.047,5.3,5.3,0,0,1-5.391,4.1c-3.028,0-4.947-3.089-5.275-3.657a15.207,15.207,0,0,0-5.023-6.636,18.629,18.629,0,0,1,14.963-4.764c7.932.908,10.633,5.616,11.4,7.472.951,6.81-1.457,9.652-3.033,10.757A5.93,5.93,0,0,0,78.967,37.866ZM58.236,63.344l-.1-.906-.857-.263c-6.7-2.059-6.987-7.686-7-7.917l-.045-1.708-1.633.4a8.932,8.932,0,0,1-2.144.276,7.452,7.452,0,0,1-6.049-3.264A11.394,11.394,0,0,0,45.3,42.926a1.383,1.383,0,0,0-.954-1.694,1.354,1.354,0,0,0-1.665.97,8.531,8.531,0,0,1-4.115,5.657L38.074,48a19.723,19.723,0,0,1-5.316.79A12.146,12.146,0,0,1,24.527,45.9a16.193,16.193,0,0,0,7.834-5.1,1.4,1.4,0,0,0-.137-1.947,1.343,1.343,0,0,0-1.914.139,13.77,13.77,0,0,1-9.281,4.8c-.336.02-.766.037-1.278.037-5.654,0-15.364-1.794-16.872-13.81-.558-4.45.314-8.183,2.593-11.1,4.375-5.593,12.572-6.483,12.653-6.491l.667-.066.354-.578c2.193-3.582,5.176-5.4,8.867-5.4a12.647,12.647,0,0,1,3.652.567A19.806,19.806,0,0,0,29.3,15.891a1.368,1.368,0,0,0,1.356,1.377h0a1.369,1.369,0,0,0,1.354-1.384c0-.064.031-5.174,2.888-8.863,2.55-2.8,5.4-4.216,8.474-4.216a12.809,12.809,0,0,1,7.234,2.52l.97.793.861-.913a9.5,9.5,0,0,1,6.6-2.444,12.32,12.32,0,0,1,2.876.354c5.836,1.406,6.627,5.6,6.655,5.765l.187,1.212,1.2-.047c.292-.011.577-.016.859-.016,4.383,0,7.815,1.378,10.2,4.1,2.9,3.3,3.794,8,4.027,11.433-2.057-2.278-5.483-4.6-11.1-5.245a22.6,22.6,0,0,0-4.591-.064c-1.05-2.619-4.95-10.365-14.586-11.118a12.836,12.836,0,0,0-12.311,6.378c-.071.109-.131.2-.181.275a1.383,1.383,0,0,0-.5,1.07,1.369,1.369,0,0,0,1.357,1.38c.795,0,1.176-.576,1.578-1.187a10.2,10.2,0,0,1,9.85-5.166c7.487.586,10.867,6.24,12.023,8.8a21.312,21.312,0,0,0-9.876,5.236,13.225,13.225,0,0,0-4.025-1.883A1.405,1.405,0,0,0,52.552,24a12.532,12.532,0,0,0-10.177,1.872c-1.632-1.989-5.718-5.734-13.345-5.737h-.007c-10.065,0-13.719,10.238-13.755,10.341a1.386,1.386,0,0,0,.83,1.76,1.327,1.327,0,0,0,.45.079,1.358,1.358,0,0,0,1.28-.923c.03-.085,3.03-8.5,11.2-8.5h.006c8.531,0,11.722,5.332,11.849,5.552a1.357,1.357,0,0,0,.894.662,1.334,1.334,0,0,0,1.081-.235c3.513-2.608,6.594-2.8,8.881-2.265,3.163.829,7.877,3.791,9.417,8.776,0,.007,0,.013.006.02a6.142,6.142,0,0,1,.182.738c.97,5.546-2.587,10.779-2.621,10.829a1.4,1.4,0,0,0-.152,1.3,1.369,1.369,0,0,0,.992.846c.344.072,7.695,1.738,9.543,11.758l.011.072c1.164,7.632-.189,12.51-.9,14.407C59.456,73.2,58.283,63.756,58.236,63.344Z" transform="translate(0 0)" fill="#262261" stroke="#262261" stroke-width="1"/>
  </g>
</svg>
