<svg xmlns="http://www.w3.org/2000/svg" xmlns:xlink="http://www.w3.org/1999/xlink" width="235.504" height="227.348" viewBox="0 0 235.504 227.348">
  <defs>
    <linearGradient id="linear-gradient" x1="0.5" x2="0.5" y2="1" gradientUnits="objectBoundingBox">
      <stop offset="0" stop-color="#fff"/>
      <stop offset="1" stop-color="#e8edff"/>
    </linearGradient>
    <linearGradient id="linear-gradient-2" x1="0.5" y1="1.347" x2="0.5" y2="0.141" gradientUnits="objectBoundingBox">
      <stop offset="0" stop-color="#fff" stop-opacity="0.4"/>
      <stop offset="1" stop-color="#f1f1f2" stop-opacity="0"/>
    </linearGradient>
  </defs>
  <g id="Group_1" data-name="Group 1" transform="translate(-63.998 -554.291)">
    <g id="Group_1-2" data-name="Group 1">
      <path id="Path_2" data-name="Path 2" d="M87.83,575.8a5.178,5.178,0,1,1-5.178-5.178A5.178,5.178,0,0,1,87.83,575.8Z" fill="#262261"/>
      <path id="Path_3" data-name="Path 3" d="M79.772,590.435a7.887,7.887,0,1,1-7.887-7.888A7.887,7.887,0,0,1,79.772,590.435Z" fill="#262261"/>
      <path id="Path_4" data-name="Path 4" d="M173.742,733.074a14.037,14.037,0,1,1-14.037-14.038A14.036,14.036,0,0,1,173.742,733.074Z" fill="#262261"/>
      <path id="Path_5" data-name="Path 5" d="M278.289,766.918s-.394,13.4-14.2,14.537-6.926-3.332-6.167-3.386,2.272-3.739,3.282-3.789S278.289,766.918,278.289,766.918Z" fill="#262261"/>
      <path id="Path_6" data-name="Path 6" d="M235.039,563.179H131.876c-31.089,0-56.385,29.487-56.385,65.732v42.145c0,36.243,25.3,65.73,56.385,65.73h37.793c11.515,18.1,37.09,44.828,87.653,44.828,2.221,0,4.5-.055,6.772-.159a6.466,6.466,0,0,0,1.6-12.641,49.583,49.583,0,0,1-29.821-32.036c30.709-.517,55.551-29.8,55.551-65.722V628.911C291.422,592.666,266.129,563.179,235.039,563.179Z" fill="#262261"/>
      <path id="Path_7" data-name="Path 7" d="M243.119,554.291H139.956c-31.09,0-56.385,29.489-56.385,65.732v42.145c0,36.243,25.295,65.73,56.385,65.73H177.75c11.514,18.1,37.089,44.829,87.652,44.829,2.221,0,4.5-.056,6.771-.162a6.465,6.465,0,0,0,1.6-12.639,49.583,49.583,0,0,1-29.82-32.035c30.709-.518,55.551-29.8,55.551-65.723V620.023C299.5,583.78,274.209,554.291,243.119,554.291Z" fill="#262261"/>
      <path id="Path_8" data-name="Path 8" d="M243.119,560.758H139.956c-27.569,0-49.918,26.535-49.918,59.265v42.145c0,32.73,22.349,59.264,49.918,59.264h41.427c9.9,17.017,35.347,47.22,90.491,44.674,0,0-30.219-9.275-36.06-44.674h7.305c27.568,0,49.918-26.534,49.918-59.264V620.023C293.037,587.293,270.687,560.758,243.119,560.758Z" fill="url(#linear-gradient)"/>
      <path id="Path_10" data-name="Path 10" d="M246.826,617.915l-18.058-19.009-51.055,48.5-24.86-26.17-17.9,17.006,43.051,45.049Z" transform="translate(0 3)" fill="#0042ac" stroke="#262261" stroke-width="3"/>
      <path id="Path_11" data-name="Path 11" d="M240.543,567.861H140.964c-26.611,0-48.183,25.615-48.183,57.206V638.02c25.884,12.072,63.654,19.682,105.728,19.682,34.3,0,65.745-5.06,90.217-13.469V625.067C288.726,593.476,267.153,567.861,240.543,567.861Z" fill="url(#linear-gradient-2)"/>
      <path id="Path_12" data-name="Path 12" d="M145.668,747.109a6.92,6.92,0,1,1-6.92-6.919A6.922,6.922,0,0,1,145.668,747.109Z" fill="#262261"/>
      <path id="Path_13" data-name="Path 13" d="M156.273,754.032a4.648,4.648,0,1,1-4.648-4.65A4.648,4.648,0,0,1,156.273,754.032Z" fill="#262261"/>
    </g>
  </g>
</svg>
